# xmcd CD database file
#
# Track frame offsets:
#	150
#	14076
#	30595
#	64741
#	83506
#	104420
#	116728
#
# Disc length: 1697 seconds
#
# Revision: 0
# Processed by: cddbd v1.5.2PL0 Copyright (c) Steve Scherf et al.
# Submitted via: CDex 1.70beta2
#
DISCID=54069f07
DTITLE=Rhoda Scott - Take A Ladder
DYEAR=1900
DGENRE=Jazz
TTITLE0=Moanin'
TTITLE1=Il Est Mort Le Soleil
TTITLE2=Medley From West Side Story
TTITLE3=Take A Ladder
TTITLE4=Ebb Tide
TTITLE5=What Kind Of Fool Am I
TTITLE6=Count Basie
EXTD=
EXTT0=
EXTT1=
EXTT2=
EXTT3=
EXTT4=
EXTT5=
EXTT6=
PLAYORDER=
